<?xml version="1.0" encoding="UTF-8" standalone="no"?><!DOCTYPE svg PUBLIC "-//W3C//DTD SVG 1.1//EN" "http://www.w3.org/Graphics/SVG/1.1/DTD/svg11.dtd"><svg width="100%" height="100%" viewBox="0 0 251 250" version="1.1" xmlns="http://www.w3.org/2000/svg" xmlns:xlink="http://www.w3.org/1999/xlink" xml:space="preserve" xmlns:serif="http://www.serif.com/" style="fill-rule:evenodd;clip-rule:evenodd;stroke-linejoin:round;stroke-miterlimit:2;"><rect id="treble_clef" x="0.783" y="0" width="250" height="250" style="fill:none;"/><clipPath id="_clip1"><rect id="treble_clef1" serif:id="treble_clef" x="0.783" y="0" width="250" height="250"/></clipPath><g clip-path="url(#_clip1)"><path d="M107.573,235.109c-1.195,-0 -3.317,-0.254 -3.305,-0.162c0.75,5.638 9.737,8.351 15.001,8.753c15.833,1.207 24.158,-16.658 24.47,-37.615c0.039,-2.644 -0.007,-5.355 -0.128,-8.11c-21.738,5.173 -60.187,-5.255 -66.272,-40.449c-3.691,-19.143 9.181,-35.278 22.179,-49.68c5.98,-6.625 12.229,-12.765 19.541,-21.34c-13.701,-34.651 -11.527,-68.597 14.901,-86.777c20.847,24.168 34.676,55.031 -5.486,99.434c2.438,8.443 6.369,20.102 8.208,27.086c50.012,-5.714 65.572,55.353 12.919,69.805c0.536,9.655 0.236,18.837 -1.365,26.703c-3.31,16.262 -11.967,27.151 -28.966,26.936c-17.369,-0.221 -28.708,-18.766 -26.096,-29.474c1.463,-5.997 6.559,-13.013 14.399,-13.013c8.082,-0 14.644,7.026 14.644,14.451c0,7.424 -6.562,13.452 -14.644,13.452Zm35.661,-43.225c-1.537,-19.4 -5.665,-35.429 -9.602,-50.806c-12.026,1.25 -19.744,12.759 -16.817,21.621c1.843,5.58 5.73,8.488 11.533,11.35c3.495,3.953 2.364,6.277 -0.9,6.256c-2.465,-0.817 -11.252,-3.816 -16.563,-14.758c-7.232,-14.904 2.301,-34.164 19.355,-37.963c-1.775,-6.668 -4.228,-16.903 -6.233,-23.676c-6.378,7.255 -9.931,8.998 -14.818,16.196c-6.579,9.692 -17.35,20.643 -13.869,38.028c6.268,31.305 28.894,38.853 47.914,33.752Zm-20.544,-109.749c3.278,-5.199 30.339,-27.977 18.223,-62.26c-18.91,10.599 -21.212,20.853 -22.618,33.298c-1.108,9.808 2.436,21.654 4.395,28.962Zm17.233,58.654c3.803,15.043 7.517,29.926 9.212,48.884c28.054,-11.476 22.739,-50.641 -9.212,-48.884Z"/></g></svg>